<?xml version="1.0" standalone="no"?>
<!DOCTYPE svg PUBLIC "-//W3C//DTD SVG 1.1//EN" "http://www.w3.org/Graphics/SVG/1.1/DTD/svg11.dtd" >
<svg xmlns="http://www.w3.org/2000/svg" xmlns:xlink="http://www.w3.org/1999/xlink" version="1.1">
<metadata></metadata>
<defs>
<font id="postbusregular" horiz-adv-x="1110" >
<font-face units-per-em="2048" ascent="1536" descent="-512" />
<missing-glyph horiz-adv-x="403" />
<glyph unicode="&#x20ac;p" horiz-adv-x="919" d="M41 193q55 55 97 123.5t61 148.5h-119v215h94q-47 92 -81 182t-34 195q0 94 36 174t97.5 136t143.5 88t176 32q133 0 232.5 -69.5t127.5 -205.5l-215 -53q-12 55 -57 80t-98 25q-100 0 -160.5 -56.5t-60.5 -160.5q0 -51 15 -97.5t36.5 -90.5t44 -88t37.5 -91h295v-215 h-283q-4 -27 -9 -50.5t-14 -47.5q78 0 121 -20.5t71 -45.5t48.5 -46.5t54.5 -25.5q18 14 21.5 37t3.5 43l221 -18q-6 -53 -23.5 -105.5t-47 -92.5t-74.5 -64.5t-109 -24.5q-51 0 -89 21.5t-68.5 48t-57 48t-55.5 21.5q-37 0 -78 -15t-80 -37.5t-77 -48.5t-68 -46z" />
<glyph unicode="&#x20ac;y" horiz-adv-x="1054" d="M2 1434h231l310 -576l309 576h231l-354 -672h180v-197h-252v-166h252v-196h-252v-203h-231v203h-246v196h246v166h-246v197h174z" />
<glyph unicode="&#x28;c&#x29;" horiz-adv-x="1146" d="M55 510q0 106 39 199.5t107.5 161t160.5 106.5t201 39q113 0 209 -39t166 -108.5t108.5 -166t38.5 -208.5q0 -121 -36.5 -216.5t-105.5 -163t-165 -103.5t-215 -36q-256 0 -382 143.5t-126 391.5zM211 510q0 -82 22.5 -153.5t66.5 -126t110.5 -85t154.5 -30.5 q82 0 149.5 28.5t115 79.5t73 121t25.5 152t-28 151.5t-78 119.5t-118.5 77.5t-150.5 27.5q-72 0 -134.5 -30.5t-108.5 -81.5t-72.5 -115.5t-26.5 -134.5zM299 492q0 141 80 210.5t215 69.5q41 0 80 -8t69 -35l-59 -115q-45 39 -117 39q-70 0 -102.5 -44t-32.5 -109 q0 -61 44 -106.5t106 -45.5q29 0 58.5 6t51.5 25l60 -109q-41 -27 -87.5 -38t-93.5 -11q-59 0 -108 20.5t-86 56.5t-57.5 85t-20.5 109z" />
<glyph unicode="&#x28;r&#x29;" horiz-adv-x="976" d="M55 1038q0 90 32 168t89 134.5t135 88t168 31.5q88 0 168 -32.5t139.5 -89t94 -134.5t34.5 -168q0 -100 -29.5 -182t-87 -140.5t-138 -90t-181.5 -31.5q-215 0 -319.5 118.5t-104.5 327.5zM184 1038q0 -70 18.5 -130t56.5 -104t93.5 -69.5t128.5 -25.5q55 0 109.5 18 t95.5 57h-88l-172 181v-181h-94v471h135q33 0 66.5 -6t60.5 -22.5t44 -43t17 -65.5q0 -59 -37.5 -92t-93.5 -43l181 -180q41 47 59 105.5t18 119.5q0 66 -22.5 123t-62.5 99t-96 66.5t-122 24.5q-61 0 -115.5 -24.5t-94.5 -66.5t-62.5 -96t-22.5 -116zM426 1047h43 q29 0 59.5 13t30.5 48q0 41 -28.5 56.5t-63.5 15.5h-41v-133z" />
<glyph horiz-adv-x="0" />
<glyph horiz-adv-x="682" />
<glyph unicode=" "  horiz-adv-x="403" />
<glyph unicode="&#x09;" horiz-adv-x="403" />
<glyph unicode="&#xa0;" horiz-adv-x="403" />
<glyph unicode="!" horiz-adv-x="569" d="M133 150q0 63 42 108t108 45q63 0 108 -45t45 -108q0 -66 -45 -108t-108 -42t-106.5 43.5t-43.5 106.5zM150 430v1049h270v-1049h-270z" />
<glyph unicode="&#x22;" horiz-adv-x="956" d="M133 1202v277h270v-277q0 -66 -12 -138.5t-20 -137.5h-205q-8 66 -20.5 138.5t-12.5 137.5zM553 1202v277h270v-277q0 -66 -12 -138.5t-20 -137.5h-205q-8 66 -20.5 138.5t-12.5 137.5z" />
<glyph unicode="#" horiz-adv-x="1134" d="M63 639v197h281l49 213h221l-49 -213h117l49 213h221l-49 -213h150v-197h-195l-57 -240h260v-196h-305l-47 -203h-222l48 203h-117l-47 -203h-219l45 203h-129v196h174l57 240h-236zM463 399h117l57 240h-117z" />
<glyph unicode="$" horiz-adv-x="1103" d="M133 1053q0 68 19.5 130t55.5 114.5t89 89t121 53.5v129h270v-133q63 -12 114.5 -49t88.5 -87.5t56.5 -112t19.5 -122.5l-2 -43h-271q8 70 -32.5 120t-112.5 50q-51 0 -94 -31t-43 -86q0 -25 12 -47t31 -39l411 -317q27 -23 47.5 -56.5t32.5 -72.5t18.5 -79t6.5 -73 q0 -66 -20.5 -128t-57.5 -115.5t-89 -93.5t-116 -60v-172h-270v168q-61 20 -112.5 57t-88.5 86t-57.5 107.5t-20.5 124.5q0 49 8 84h269q-10 -37 -7 -75t20 -68t47 -49t73 -19q63 0 108 45t45 108q0 59 -42 105.5t-105 89.5t-137 87t-137.5 98t-105.5 122t-42 160z" />
<glyph unicode="%" horiz-adv-x="1456" d="M96 1108v111q0 59 22.5 111t61.5 91t91.5 61.5t111.5 22.5t111.5 -22.5t91.5 -61.5t61.5 -91t22.5 -111v-111q0 -59 -22.5 -111.5t-61.5 -91.5t-91.5 -61.5t-111.5 -22.5t-111.5 22.5t-91.5 61.5t-61.5 91.5t-22.5 111.5zM133 0l875 1477h270l-877 -1477h-268zM279 1108 q0 -43 30.5 -73.5t73.5 -30.5t73.5 30.5t30.5 73.5v111q0 43 -31.5 72.5t-72.5 29.5t-72.5 -29.5t-31.5 -72.5v-111zM750 262v111q0 59 22.5 111.5t61 91t91 61t111.5 22.5t111.5 -22.5t91.5 -61t61.5 -91t22.5 -111.5v-111q0 -59 -22.5 -111.5t-61.5 -91.5t-91 -61.5 t-112 -22.5q-59 0 -111.5 22.5t-91 61.5t-61 91.5t-22.5 111.5zM932 262q0 -43 30.5 -73.5t73.5 -30.5t74 30.5t31 73.5v111q0 43 -32 72.5t-73 29.5t-72.5 -29.5t-31.5 -72.5v-111z" />
<glyph unicode="&#x26;" horiz-adv-x="1228" d="M20 428q0 70 20.5 126t56.5 102t84 85t104 74q-31 63 -50.5 131t-19.5 139q0 63 23.5 122t64.5 102t97.5 68.5t123.5 25.5q74 0 136.5 -25.5t107.5 -71.5t70.5 -108.5t25.5 -136.5q0 -129 -64.5 -212t-174.5 -138q45 -63 87 -128t93 -124q12 59 15 119.5t5 119.5l238 -22 q-6 -104 -17.5 -207.5t-58.5 -198.5q8 -4 17.5 -8t19.5 -4q16 0 33.5 8t32.5 19l112 -215q-39 -23 -82 -39.5t-90 -16.5q-57 0 -109.5 21.5t-97.5 56.5q-66 -41 -139.5 -66.5t-151.5 -25.5q-100 0 -192 25.5t-163 78t-114 133t-43 191.5zM299 438q0 -115 66.5 -157.5 t171.5 -42.5q29 0 57.5 9t54.5 21q-66 82 -126 167t-117 173q-49 -29 -78 -70t-29 -100zM455 1077q0 -45 13 -88t32 -84q51 27 88 63t37 97q0 35 -21.5 66.5t-60.5 31.5q-88 0 -88 -86z" />
<glyph unicode="'" horiz-adv-x="569" d="M150 1202v277h270v-277q0 -66 -12.5 -138.5t-20.5 -137.5h-205q-8 66 -20 138.5t-12 137.5z" />
<glyph unicode="(" horiz-adv-x="688" d="M133 279v933q0 86 34 163t91 134.5t134 91t163 33.5v-270q-61 0 -107.5 -44t-46.5 -108v-933q0 -63 45.5 -108.5t108.5 -45.5v-268q-86 0 -163 33.5t-134 91t-91 134.5t-34 163z" />
<glyph unicode=")" horiz-adv-x="688" d="M133 125q63 0 108.5 45t45.5 109v933q0 63 -46 107.5t-108 44.5v270q86 0 163 -33.5t134 -91t91 -134.5t34 -163v-933q0 -86 -34 -163t-91 -134.5t-134 -91t-163 -33.5v268z" />
<glyph unicode="*" horiz-adv-x="743" d="M41 1108q16 55 34.5 110.5t37.5 108.5l194 -113l-49 220h231l-51 -220l195 113q16 -55 34.5 -110.5t37.5 -108.5l-226 -23l170 -147l-188 -137l-88 211l-90 -211l-189 137l172 147z" />
<glyph unicode="+" horiz-adv-x="1024" d="M133 606v268h246v244h268v-244h244v-268h-244v-246h-268v246h-246z" />
<glyph unicode="," horiz-adv-x="569" d="M133 150q0 63 42 108t108 45q63 0 108 -45t45 -108q0 -115 -27.5 -198t-101.5 -173h-121l68 223q-53 10 -87 52t-34 96z" />
<glyph unicode="-" horiz-adv-x="890" d="M133 606v268h625v-268h-625z" />
<glyph unicode="." horiz-adv-x="569" d="M133 150q0 63 42 108t108 45q63 0 108 -45t45 -108q0 -66 -45 -108t-108 -42t-106.5 43.5t-43.5 106.5z" />
<glyph unicode="/" horiz-adv-x="655" d="M4 -135l377 1747h270l-379 -1747h-268z" />
<glyph unicode="0" horiz-adv-x="1107" d="M133 395v688q0 86 33 163t90 134.5t134 91t163 33.5t163 -33.5t134 -91t91 -134.5t34 -163v-688q0 -86 -34 -162.5t-91 -134t-134 -91.5t-163 -34t-163 34t-134 91.5t-90 134t-33 162.5zM401 395q0 -61 44 -107t108 -46q63 0 108.5 45t45.5 108v688q0 63 -45.5 107.5 t-108.5 44.5q-61 0 -106.5 -45t-45.5 -107v-688z" />
<glyph unicode="1" horiz-adv-x="804" d="M133 756v413l268 310h271v-1479h-271v1065z" />
<glyph unicode="2" horiz-adv-x="1103" d="M133 270q0 37 3 78t12.5 80t27 75t43.5 62l426 426q23 23 34 52.5t11 58.5q0 59 -39 97t-96 38q-61 0 -104 -42t-43 -103l2 -25h-271l-2 41q0 84 35 156.5t93.5 126t133 84t156.5 30.5q86 0 162 -30.5t132 -85t89 -129t33 -162.5q0 -72 -29 -141.5t-78 -122.5l-379 -396 q-33 -35 -43 -78t-10 -90h518v-270h-815z" />
<glyph unicode="3" d="M133 387h270q0 -61 44.5 -107.5t107.5 -46.5t108.5 45.5t45.5 108.5q0 61 -6.5 106.5t-29 75t-65.5 44t-114 14.5v229q37 0 74.5 7t69.5 24.5t51.5 47.5t19.5 73q0 39 -4.5 79.5t-19.5 74.5t-46 54.5t-84 20.5q-63 0 -107.5 -46t-44.5 -108h-270q0 86 34 163t91 134.5 t134 91t163 33.5t163 -33.5t134 -91t91 -134.5t34 -163q0 -53 -2 -98t-13.5 -87t-34 -80t-63.5 -77q55 -53 84 -121.5t29 -144.5q0 -100 -22.5 -192.5t-73 -163t-131 -112.5t-195.5 -42q-86 0 -163 34t-134 91t-91 134t-34 163z" />
<glyph unicode="4" horiz-adv-x="1116" d="M133 252v268l352 959h279l-346 -959h180v277h270v-277h115v-268h-115v-252h-270v252h-465z" />
<glyph unicode="5" horiz-adv-x="1112" d="M133 395h270q0 -61 45.5 -106t106.5 -45t107.5 44t46.5 107v97q0 39 -6.5 75.5t-22.5 65.5t-46 46t-79 17l-422 -2v785h793v-271h-525v-243h154q86 0 163 -34t134 -91.5t91 -134t34 -162.5v-148q0 -86 -34 -162.5t-91 -134t-134 -91.5t-163 -34t-163 34t-134 91.5 t-91 134t-34 162.5z" />
<glyph unicode="6" horiz-adv-x="1112" d="M133 395l2 688q0 86 34 163t91 134.5t134 91t163 33.5t163 -33.5t134 -91t91 -134.5t34 -163h-270q0 61 -45.5 106.5t-106.5 45.5t-107.5 -44t-46.5 -108v-163q90 53 199 53q72 0 139.5 -20.5t119.5 -60.5t84 -99.5t32 -139.5v-258q0 -86 -34 -162.5t-91 -134t-134 -91.5 t-163 -34t-163 34t-134 91.5t-91 134t-34 162.5zM403 395q0 -61 44.5 -107t107.5 -46t108.5 45t45.5 108v221q0 63 -46.5 107.5t-107.5 44.5t-106.5 -45t-45.5 -107v-221z" />
<glyph unicode="7" horiz-adv-x="1116" d="M133 1202v271h850l-324 -1473h-321l278 1202h-483z" />
<glyph unicode="8" horiz-adv-x="1107" d="M133 395v160q0 68 33 127t84 100q-51 43 -84 102.5t-33 127.5q0 106 19.5 197t67.5 158t129 103.5t204 36.5q84 0 161 -25.5t135 -73.5t92 -118.5t34 -161.5q0 -55 -1 -102t-11.5 -88t-35 -79t-71.5 -77q53 -41 86 -100t33 -127v-160q0 -86 -34 -162.5t-91 -134 t-134 -91.5t-163 -34t-163 34t-134 91.5t-90 134t-33 162.5zM401 395q0 -61 44 -107t108 -46q63 0 108.5 45t45.5 108v94q0 25 -10.5 51.5t-29 48t-42 36t-50.5 14.5h-45q-27 0 -50 -14.5t-40.5 -36t-28 -48t-10.5 -51.5v-94zM401 1085q0 -70 38 -120t114 -50 q63 0 108.5 44.5t45.5 107.5q0 72 -39 122t-115 50q-63 0 -107.5 -46t-44.5 -108z" />
<glyph unicode="9" horiz-adv-x="1112" d="M133 395h270q0 -61 45.5 -106t106.5 -45t107.5 44t46.5 107v164q-90 -53 -199 -53q-72 0 -139.5 20.5t-119.5 60.5t-84 99t-32 139v258q0 86 34 163t91 134.5t134 91t163 33.5t163 -33.5t134 -91t91 -134.5t34 -163l-2 -688q0 -86 -34 -162.5t-91 -134t-134 -91.5 t-163 -34t-163 34t-134 91.5t-91 134t-34 162.5zM403 862q0 -63 46.5 -107t107.5 -44t106.5 45t45.5 106v221q0 61 -44 107.5t-108 46.5q-63 0 -108.5 -45t-45.5 -109v-221z" />
<glyph unicode=":" horiz-adv-x="569" d="M133 150q0 63 42 108t108 45q63 0 108 -45t45 -108q0 -66 -45 -108t-108 -42t-106.5 43.5t-43.5 106.5zM133 766q0 63 42 108.5t108 45.5q63 0 108 -45.5t45 -108.5q0 -66 -45 -108t-108 -42t-106.5 43.5t-43.5 106.5z" />
<glyph unicode=";" horiz-adv-x="569" d="M133 150q0 63 42 108t108 45q63 0 108 -45t45 -108q0 -115 -27.5 -198t-101.5 -173h-121l68 223q-53 10 -87 52t-34 96zM133 766q0 63 42 108.5t108 45.5q63 0 108 -45.5t45 -108.5q0 -66 -45 -108t-108 -42t-106.5 43.5t-43.5 106.5z" />
<glyph unicode="&#x3c;" horiz-adv-x="1005" d="M133 303v311l739 295v-311l-350 -139l350 -142v-311z" />
<glyph unicode="=" horiz-adv-x="1024" d="M133 168v268h758v-268h-758zM133 606v268h758v-268h-758z" />
<glyph unicode="&#x3e;" horiz-adv-x="1005" d="M133 6v311l350 142l-350 139v311l739 -295v-311z" />
<glyph unicode="?" horiz-adv-x="1101" d="M135 1108q0 84 35 156.5t93.5 126t133 84t156.5 30.5q86 0 162 -30.5t132 -85t89 -129t33 -162.5q0 -76 -20.5 -133.5t-51.5 -105.5t-66.5 -90t-66.5 -86t-51.5 -93t-20.5 -113l2 -47h-264q-8 35 -8 90q0 106 42 185t91 142.5t91 122t42 126.5q0 59 -36 100t-99 41 q-61 0 -104 -42t-43 -103l2 -25h-271zM416 150q0 63 42 108t107 45q63 0 108.5 -45t45.5 -108q0 -66 -45 -108t-109 -42q-63 0 -106 43.5t-43 106.5z" />
<glyph unicode="@" horiz-adv-x="1423" d="M51 391q0 152 44 276t128 213t206 137t276 48q143 0 265 -49t211 -138.5t138 -211t49 -265.5q0 -72 -13.5 -140t-45 -122.5t-87 -88.5t-139.5 -34q-31 0 -64.5 4.5t-65 14.5t-58.5 30.5t-41 51.5q-43 -41 -100.5 -70t-118.5 -29q-55 0 -106.5 18.5t-91.5 52.5t-64.5 81 t-24.5 106q0 57 24.5 103.5t65.5 80.5t92.5 52t104.5 18q59 0 115.5 -21.5t97.5 -62.5q0 31 -1 64t-16.5 60.5t-54.5 46t-114 18.5q-72 0 -146 -27l-51 125q55 20 112.5 35.5t116.5 15.5q66 0 130.5 -16t115.5 -52t83 -91.5t32 -135.5q0 -25 -4 -79t-2 -109t14 -97t47 -42 q27 0 43 16.5t23.5 40t9.5 49t2 45.5q0 121 -23.5 228.5t-80 188.5t-149.5 128t-230 47q-113 0 -201 -38t-149.5 -105.5t-93.5 -159.5t-32 -201q0 -111 33 -199.5t94.5 -151t149.5 -96.5t199 -34q98 0 193 13.5t183 54.5l95 -111q-102 -72 -228.5 -92.5t-249.5 -20.5 q-131 0 -248.5 48.5t-205.5 132.5t-140.5 198.5t-52.5 247.5zM549 285q0 -29 13 -52.5t34.5 -39t48.5 -23.5t53 -8q27 0 53.5 8t48 23.5t35 39t13.5 52.5t-13.5 52t-35 38.5t-48 24t-53.5 8.5t-53.5 -8.5t-48 -24t-34.5 -39t-13 -51.5z" />
<glyph unicode="A" d="M133 0v1083q0 86 34 163t91 134.5t134 91t163 33.5t163 -33.5t134 -91t91 -134.5t34 -163v-1083h-270v469h-306v-469h-268zM401 739h306v344q0 61 -45.5 106.5t-106.5 45.5t-107.5 -44t-46.5 -108v-344z" />
<glyph unicode="B" horiz-adv-x="1105" d="M133 0v1479h420q215 0 317.5 -114t102.5 -325q0 -109 -33 -180.5t-133 -120.5q49 -25 82 -54.5t51 -66t25.5 -80.5t7.5 -100q0 -211 -102.5 -324.5t-317.5 -113.5h-420zM401 246h152q82 0 119 57t37 131t-37 131.5t-119 57.5h-152v-377zM401 874h152q80 0 118 46.5 t38 123.5q0 74 -37 131.5t-119 57.5h-152v-359z" />
<glyph unicode="C" d="M133 395v688q0 86 34 163t91 134.5t134 91t163 33.5t163 -33.5t134 -91t91 -134.5t34 -163h-270q0 61 -45.5 106.5t-106.5 45.5t-107.5 -44t-46.5 -108v-688q0 -63 45.5 -108t108.5 -45t107.5 46t44.5 107h270q0 -86 -34 -162.5t-91 -134t-134 -91.5t-163 -34t-163 34 t-134 91.5t-91 134t-34 162.5z" />
<glyph unicode="D" horiz-adv-x="1105" d="M133 0v1479h420q217 0 318.5 -114t101.5 -325v-602q0 -211 -101.5 -324.5t-318.5 -113.5h-420zM401 246h152q160 0 160 250l6 557q0 106 -43 143t-123 37h-152v-987z" />
<glyph unicode="E" horiz-adv-x="925" d="M133 0v1479h660v-269h-392v-336h392v-268h-392v-336h392v-270h-660z" />
<glyph unicode="F" horiz-adv-x="925" d="M133 0v1479h660v-269h-392v-336h392v-268h-392v-606h-268z" />
<glyph unicode="G" horiz-adv-x="1087" d="M133 395v688q0 86 34 163t91 134.5t134 91t163 33.5t163 -33.5t134 -91t91 -134.5t34 -163h-270q0 61 -45.5 106.5t-106.5 45.5t-107.5 -44t-46.5 -108v-688q0 -63 45.5 -108t108.5 -45t107.5 46t44.5 107v211h-144v268h414v-479q0 -86 -34 -162.5t-91 -134t-134 -91.5 t-163 -34t-163 34t-134 91.5t-91 134t-34 162.5z" />
<glyph unicode="H" horiz-adv-x="1075" d="M133 0v1479h270v-607h271v607h268v-1479h-268v604h-271v-604h-270z" />
<glyph unicode="I" horiz-adv-x="536" d="M133 0v1479h270v-1479h-270z" />
<glyph unicode="J" d="M133 395h268q0 -63 45.5 -108t108.5 -45t107.5 46t44.5 107v813h-439v271h709v-1084q0 -86 -34 -162.5t-91 -134t-134 -91.5t-163 -34t-163 34t-134 91.5t-91 134t-34 162.5z" />
<glyph unicode="K" horiz-adv-x="1165" d="M133 0v1479h270v-602l322 602h307l-319 -596l319 -883h-289l-202 561l-138 -258v-303h-270z" />
<glyph unicode="L" horiz-adv-x="925" d="M133 0v1479h268v-1209h392v-270h-660z" />
<glyph unicode="M" horiz-adv-x="1497" d="M133 0v1479h270l345 -865l346 865h270v-1479h-270v760l-207 -547h-277l-207 547v-760h-270z" />
<glyph unicode="N" d="M133 0v1479h270l306 -758v758h268v-1479h-268l-306 760v-760h-270z" />
<glyph unicode="O" horiz-adv-x="1107" d="M133 395v688q0 86 33 163t90 134.5t134 91t163 33.5t163 -33.5t134 -91t91 -134.5t34 -163v-688q0 -86 -34 -162.5t-91 -134t-134 -91.5t-163 -34t-163 34t-134 91.5t-90 134t-33 162.5zM401 395q0 -61 44 -107t108 -46q63 0 108.5 45t45.5 108v688q0 63 -45.5 107.5 t-108.5 44.5q-61 0 -106.5 -45t-45.5 -107v-688z" />
<glyph unicode="P" horiz-adv-x="1105" d="M133 0v1479h420q113 0 192.5 -38t130 -104.5t74 -155.5t23.5 -192q0 -115 -22.5 -208t-72 -159.5t-127 -103.5t-190.5 -37h-160v-481h-268zM401 733h152q47 0 78 26.5t48 66.5t23.5 85t6.5 82q0 39 -6.5 81t-23.5 77t-47 58.5t-79 23.5h-152v-500z" />
<glyph unicode="Q" horiz-adv-x="1210" d="M133 395v688q0 86 34 163t91 134.5t134 91t163 33.5t163 -33.5t134 -91t90 -134.5t33 -163v-688q0 -31 -3 -60.5t-14 -58.5l119 -276h-270l-19 45q-109 -72 -233 -72q-86 0 -163 34t-134 91.5t-91 134t-34 162.5zM401 395q0 -63 45.5 -108t108.5 -45q37 0 68.5 17 t54.5 46l-154 354h183v424q0 61 -45.5 106.5t-106.5 45.5q-63 0 -108.5 -44t-45.5 -108v-688z" />
<glyph unicode="R" horiz-adv-x="1042" d="M115 0v1479h420q213 0 316 -127t103 -338q0 -49 -15 -112.5t-47 -126t-83 -116t-121 -79.5l297 -580h-268l-287 553h-47v-553h-268zM383 805h152q41 0 70.5 19.5t48 50t27.5 68.5t9 75t-9 74.5t-27.5 69.5t-48.5 51.5t-70 19.5h-152v-428z" />
<glyph unicode="S" horiz-adv-x="1103" d="M133 1098q0 88 33 162.5t89 129t132 85t162 30.5q82 0 156.5 -30.5t133 -84t93.5 -126t35 -156.5l-2 -41h-271q1 11 1 22q0 21 -5 43q-8 32 -26.5 57t-47 40.5t-65.5 15.5q-59 0 -98 -44t-39 -101q0 -53 41 -96t103.5 -85t134 -89.5t134 -107.5t103.5 -141t41 -190 q0 -86 -34 -162.5t-91.5 -134t-134 -91.5t-162.5 -34q-82 0 -157 28t-131 78t-90 119.5t-34 155.5q0 25 3 49.5t7 49.5h269q-8 -28 -8 -58q0 -9 1 -17q3 -38 20 -68t47 -49t73 -19q63 0 108 45t45 108q0 66 -42 115t-105 94t-137 89t-137.5 101.5t-105.5 131t-42 176.5z" />
<glyph unicode="T" horiz-adv-x="829" d="M63 1210v269h707v-269h-219v-1210h-268v1210h-220z" />
<glyph unicode="U" d="M133 389v1084h268v-1084q0 -63 45.5 -108t108.5 -45t107.5 46t44.5 107v1084h270v-1084q0 -86 -34 -162.5t-91 -134t-134 -91.5t-163 -34t-163 34t-134 91.5t-91 134t-34 162.5z" />
<glyph unicode="V" horiz-adv-x="991" d="M33 1479h268l186 -856l185 856h268l-319 -1479h-269z" />
<glyph unicode="W" horiz-adv-x="1683" d="M133 389v1084h268v-1084q0 -63 45.5 -108t108.5 -45t107.5 46t44.5 107v217h-172v268h172v203h268v-203h184v-268h-184v-217q0 -63 45 -108t108 -45t108.5 45t45.5 108v1084h268v-1084q0 -86 -33.5 -162.5t-91 -134t-134.5 -91.5t-163 -34q-80 0 -153.5 30t-132.5 83 q-59 -53 -133 -83t-154 -30q-86 0 -163 34t-134 91.5t-91 134t-34 162.5z" />
<glyph unicode="X" horiz-adv-x="1169" d="M133 0l295 739l-295 740h311l140 -353l141 353h311l-297 -740l297 -739h-311l-141 350l-140 -350h-311z" />
<glyph unicode="Y" horiz-adv-x="1169" d="M133 1479h311l140 -609l141 609h311q-18 -59 -45.5 -140.5t-59.5 -173.5t-63.5 -188t-61.5 -186.5t-52.5 -168t-34.5 -133.5v-489h-268v489q-12 53 -35 132t-52.5 169.5t-61.5 186.5t-63.5 188t-59 173t-46.5 141z" />
<glyph unicode="Z" horiz-adv-x="1054" d="M133 0l399 1208h-399v271h789l-398 -1211h398v-268h-789z" />
<glyph unicode="[" horiz-adv-x="673" d="M133 -135v1745h408v-269h-140v-1206h140v-270h-408z" />
<glyph unicode="\" horiz-adv-x="655" d="M4 1612h270l377 -1747h-268z" />
<glyph unicode="]" horiz-adv-x="673" d="M133 -135v270h139v1206h-139v269h408v-1745h-408z" />
<glyph unicode="^" horiz-adv-x="1169" d="M137 346l451 1127l452 -1127h-311l-141 350l-139 -350h-312z" />
<glyph unicode="_" horiz-adv-x="837" d="M-4 -190h846v-197h-846v197z" />
<glyph unicode="`" horiz-adv-x="1126" d="M160 1530h291l118 -375h-172z" />
<glyph unicode="a" d="M133 0v1083q0 86 34 163t91 134.5t134 91t163 33.5t163 -33.5t134 -91t91 -134.5t34 -163v-1083h-270v469h-306v-469h-268zM401 739h306v344q0 61 -45.5 106.5t-106.5 45.5t-107.5 -44t-46.5 -108v-344z" />
<glyph unicode="b" horiz-adv-x="1105" d="M133 0v1479h420q215 0 317.5 -114t102.5 -325q0 -109 -33 -180.5t-133 -120.5q49 -25 82 -54.5t51 -66t25.5 -80.5t7.5 -100q0 -211 -102.5 -324.5t-317.5 -113.5h-420zM401 246h152q82 0 119 57t37 131t-37 131.5t-119 57.5h-152v-377zM401 874h152q80 0 118 46.5 t38 123.5q0 74 -37 131.5t-119 57.5h-152v-359z" />
<glyph unicode="c" d="M133 395v688q0 86 34 163t91 134.5t134 91t163 33.5t163 -33.5t134 -91t91 -134.5t34 -163h-270q0 61 -45.5 106.5t-106.5 45.5t-107.5 -44t-46.5 -108v-688q0 -63 45.5 -108t108.5 -45t107.5 46t44.5 107h270q0 -86 -34 -162.5t-91 -134t-134 -91.5t-163 -34t-163 34 t-134 91.5t-91 134t-34 162.5z" />
<glyph unicode="d" horiz-adv-x="1105" d="M133 0v1479h420q217 0 318.5 -114t101.5 -325v-602q0 -211 -101.5 -324.5t-318.5 -113.5h-420zM401 246h152q160 0 160 250l6 557q0 106 -43 143t-123 37h-152v-987z" />
<glyph unicode="e" horiz-adv-x="925" d="M133 0v1479h660v-269h-392v-336h283v-268h-283v-336h392v-270h-660z" />
<glyph unicode="f" horiz-adv-x="925" d="M133 0v1479h660v-269h-392v-336h287v-268h-287v-606h-268z" />
<glyph unicode="g" horiz-adv-x="1087" d="M133 395v688q0 86 34 163t91 134.5t134 91t163 33.5t163 -33.5t134 -91t91 -134.5t34 -163h-270q0 61 -45.5 106.5t-106.5 45.5t-107.5 -44t-46.5 -108v-688q0 -63 45.5 -108t108.5 -45t107.5 46t44.5 107v211h-105l-76 268h451v-479q0 -86 -34 -162.5t-91 -134 t-134 -91.5t-163 -34t-163 34t-134 91.5t-91 134t-34 162.5z" />
<glyph unicode="h" horiz-adv-x="958" d="M74 0v1479h270v-607h270v607h269v-1479h-269v604h-270v-604h-270z" />
<glyph unicode="i" horiz-adv-x="536" d="M133 0v1479h270v-1479h-270z" />
<glyph unicode="j" d="M133 395h268q0 -63 45.5 -108t108.5 -45t107.5 46t44.5 107v813h-439v271h709v-1084q0 -86 -34 -162.5t-91 -134t-134 -91.5t-163 -34t-163 34t-134 91.5t-91 134t-34 162.5z" />
<glyph unicode="k" horiz-adv-x="1032" d="M74 0v1479h270v-602l322 602h307l-320 -596l320 -883h-289l-203 561l-137 -258v-303h-270z" />
<glyph unicode="l" horiz-adv-x="925" d="M133 0v1479h268v-1209h392v-270h-660z" />
<glyph unicode="m" horiz-adv-x="1497" d="M133 0v1479h270l345 -865l346 865h270v-1479h-270v760l-207 -547h-277l-207 547v-760h-270z" />
<glyph unicode="n" d="M133 0v1479h270l306 -758v758h268v-1479h-268l-306 760v-760h-270z" />
<glyph unicode="o" horiz-adv-x="1107" d="M133 395v688q0 86 33 163t90 134.5t134 91t163 33.5t163 -33.5t134 -91t91 -134.5t34 -163v-688q0 -86 -34 -162.5t-91 -134t-134 -91.5t-163 -34t-163 34t-134 91.5t-90 134t-33 162.5zM401 395q0 -61 44 -107t108 -46q63 0 108.5 45t45.5 108v688q0 63 -45.5 107.5 t-108.5 44.5q-61 0 -106.5 -45t-45.5 -107v-688z" />
<glyph unicode="p" horiz-adv-x="1105" d="M133 0v1479h420q113 0 192.5 -38t130 -104.5t74 -155.5t23.5 -192q0 -115 -22.5 -208t-72 -159.5t-127 -103.5t-190.5 -37h-160v-481h-268zM401 733h152q47 0 78 26.5t48 66.5t23.5 85t6.5 82q0 39 -6.5 81t-23.5 77t-47 58.5t-79 23.5h-152v-500z" />
<glyph unicode="q" horiz-adv-x="1210" d="M133 395v688q0 86 34 163t91 134.5t134 91t163 33.5t163 -33.5t134 -91t90 -134.5t33 -163v-688q0 -31 -3 -60.5t-14 -58.5l119 -276h-270l-19 45q-109 -72 -233 -72q-86 0 -163 34t-134 91.5t-91 134t-34 162.5zM401 395q0 -63 45.5 -108t108.5 -45q37 0 68.5 17 t54.5 46l-154 354h183v424q0 61 -45.5 106.5t-106.5 45.5q-63 0 -108.5 -44t-45.5 -108v-688z" />
<glyph unicode="r" horiz-adv-x="1060" d="M133 0v1479h420q213 0 316.5 -127t103.5 -338q0 -49 -15.5 -112.5t-47 -126t-83 -116t-120.5 -79.5l297 -580h-269l-286 553h-48v-553h-268zM401 805h152q41 0 70.5 19.5t48 50t28 68.5t9.5 75t-9.5 74.5t-28 69.5t-48 51.5t-70.5 19.5h-152v-428z" />
<glyph unicode="s" horiz-adv-x="1103" d="M133 1098q0 88 33 162.5t89 129t132 85t162 30.5q82 0 156.5 -30.5t133 -84t93.5 -126t35 -156.5l-2 -41h-271q1 11 1 22q0 21 -5 43q-8 32 -26.5 57t-47 40.5t-65.5 15.5q-59 0 -98 -44t-39 -101q0 -53 41 -96t103.5 -85t134 -89.5t134 -107.5t103.5 -141t41 -190 q0 -86 -34 -162.5t-91.5 -134t-134 -91.5t-162.5 -34q-82 0 -157 28t-131 78t-90 119.5t-34 155.5q0 25 3 49.5t7 49.5h269q-8 -28 -8 -58q0 -9 1 -17q3 -38 20 -68t47 -49t73 -19q63 0 108 45t45 108q0 66 -42 115t-105 94t-137 89t-137.5 101.5t-105.5 131t-42 176.5z" />
<glyph unicode="t" horiz-adv-x="829" d="M63 1210v269h707v-269h-219v-1210h-268v1210h-220z" />
<glyph unicode="u" d="M133 389v1084h268v-1084q0 -63 45.5 -108t108.5 -45t107.5 46t44.5 107v1084h270v-1084q0 -86 -34 -162.5t-91 -134t-134 -91.5t-163 -34t-163 34t-134 91.5t-91 134t-34 162.5z" />
<glyph unicode="v" horiz-adv-x="960" d="M27 1479h268l186 -856l185 856h268l-320 -1479h-268z" />
<glyph unicode="w" horiz-adv-x="1683" d="M133 389v1084h268v-1084q0 -63 45.5 -108t108.5 -45t107.5 46t44.5 107v631h268v-631q0 -63 45 -108t108 -45t108.5 45t45.5 108v1084h268v-1084q0 -86 -33.5 -162.5t-91 -134t-134.5 -91.5t-163 -34q-80 0 -153.5 30t-132.5 83q-59 -53 -133 -83t-154 -30q-86 0 -163 34 t-134 91.5t-91 134t-34 162.5z" />
<glyph unicode="x" horiz-adv-x="1112" d="M104 0l295 739l-295 740h312l139 -353l141 353h312l-297 -740l297 -739h-312l-141 350l-139 -350h-312z" />
<glyph unicode="y" horiz-adv-x="1069" d="M88 1479h311l140 -609l141 609h311q-18 -59 -45.5 -140.5t-59.5 -173.5t-63.5 -188t-61.5 -186.5t-52.5 -168t-34.5 -133.5v-489h-268v489q-12 53 -35 132t-52.5 169.5t-61.5 186.5t-63.5 188t-59.5 173t-46 141z" />
<glyph unicode="z" horiz-adv-x="1054" d="M133 0l399 1208h-399v271h789l-398 -1211h398v-268h-789z" />
<glyph unicode="{" horiz-adv-x="833" d="M125 645v207q74 0 106.5 39t43 95t7.5 117.5t-3 108.5q0 86 33.5 163t91 134.5t134 91t162.5 33.5v-270q-68 0 -97.5 -29.5t-41.5 -80t-14 -115t-16.5 -133t-50.5 -136t-111 -122.5q76 -53 110.5 -119t49 -134.5t18.5 -133t15 -115.5t41 -82t97 -31v-270 q-86 0 -162.5 33.5t-134 91t-91 134.5t-33.5 163q0 45 3 107.5t-7.5 118.5t-43 95t-106.5 39z" />
<glyph unicode="|" horiz-adv-x="536" d="M133 -135v1747h270v-1747h-270z" />
<glyph unicode="}" horiz-adv-x="808" d="M100 133q68 0 97.5 31t41 82t15.5 115.5t18.5 133t49 134t110.5 119.5q-78 55 -112.5 122.5t-49 135t-16.5 133t-13.5 115t-41 80t-99.5 30.5v270q86 0 163 -33.5t134.5 -91t91 -134.5t33.5 -163q0 -47 -3 -108.5t7.5 -117.5t43 -95t106.5 -39v-207q-74 0 -106.5 -39 t-43 -95t-7.5 -118.5t3 -107.5q0 -86 -33.5 -163t-91 -134.5t-134.5 -91t-163 -33.5v270z" />
<glyph unicode="~" horiz-adv-x="907" d="M33 420q0 57 20.5 108.5t56 90t85 62.5t108.5 24q49 0 92 -17.5t78 -39t61.5 -39t47.5 -17.5q45 0 66.5 39t21.5 78h213q0 -147 -85.5 -217t-226.5 -70q-47 0 -86 17.5t-69.5 38t-54 37.5t-42.5 17q-20 0 -32.5 -12t-19.5 -28.5t-9 -37t-2 -34.5h-223z" />
<glyph unicode="&#xa1;" horiz-adv-x="569" d="M133 1329q0 66 45 108t109 42q63 0 106 -43.5t43 -106.5t-42 -108t-107 -45q-63 0 -108.5 45t-45.5 108zM150 0v1049h270v-1049h-270z" />
<glyph unicode="&#xa2;" horiz-adv-x="1028" d="M63 512q0 111 42 209t114 172t170 118t209 44q53 0 107 -13l69 160h232l-107 -241q43 -31 80 -68l-143 -158l-25 23l-238 -543q41 -10 72 -10q53 0 103.5 22.5t87.5 61.5l143 -158q-74 -78 -172 -120t-209 -42q-70 0 -125 15l-61 -140h-232l101 230q-104 78 -161 193.5 t-57 244.5zM371 512q0 -76 35 -152l198 455q-55 -8 -98 -36.5t-73 -70.5t-46 -93.5t-16 -102.5z" />
<glyph unicode="&#xa4;" horiz-adv-x="917" d="M23 332l86 88q-29 49 -42.5 105.5t-13.5 113.5q0 53 10.5 107.5t38.5 101.5l-79 80l147 147l88 -90q47 20 98.5 29.5t102.5 9.5q53 0 106 -11.5t101 -37.5l100 100l147 -147l-98 -99q25 -43 37 -92t12 -98q0 -53 -11 -106.5t-40 -100.5l100 -100l-147 -148l-102 103 q-94 -47 -205 -47q-109 0 -195 39l-94 -95zM281 639q0 -88 40.5 -148.5t137.5 -60.5q98 0 145 58.5t47 150.5q0 86 -53 141.5t-139 55.5q-88 0 -133 -55.5t-45 -141.5z" />
<glyph unicode="&#xa6;" horiz-adv-x="446" d="M109 -195v791h231v-791h-231zM109 827v789h231v-789h-231z" />
<glyph unicode="&#xa7;" horiz-adv-x="911" d="M78 610q0 82 39 154t104 119q-66 41 -99.5 94t-33.5 131q0 86 28.5 151.5t80 109.5t121 67.5t151.5 23.5q98 0 188.5 -47t147.5 -125l-139 -145q-35 41 -78 80t-103 39q-31 0 -64.5 -7.5t-61 -22.5t-45 -41t-17.5 -63q0 -61 39 -96t97.5 -60.5t126 -49t125.5 -61.5 t97 -96t39 -155q0 -82 -40 -153.5t-105 -118.5q61 -41 98 -94.5t37 -130.5q0 -86 -28.5 -151.5t-80 -110t-121 -68t-151.5 -23.5q-98 0 -188 47.5t-148 124.5l139 146q35 -41 78 -80t103 -39q31 0 63.5 7t60 22.5t46 41t18.5 62.5q0 59 -39 95t-97 61.5t-126 49.5t-126 61.5 t-97 96t-39 154.5zM319 608q0 -41 24 -71.5t56 -53.5v2q35 -10 58 -10q61 0 92 39t31 98q0 41 -25 72t-55 53v-2q-35 10 -58 10q-61 0 -92 -38.5t-31 -98.5z" />
<glyph unicode="&#xa8;" d="M133 1343q0 55 40 95.5t95 40.5t95 -40t40 -96q0 -55 -39.5 -95t-95.5 -40q-55 0 -95 40t-40 95zM707 1343q0 55 39.5 95.5t95.5 40.5q55 0 95 -40t40 -96q0 -55 -40 -95t-95 -40t-95 40t-40 95z" />
<glyph unicode="&#xaa;" horiz-adv-x="1107" d="M133 0v268h842v-268h-842zM133 467v616q0 86 33 163t90 134.5t134 91t163 33.5t163 -33.5t134 -91t91 -134.5t34 -163v-616h-268v223h-306v-223h-268zM401 907h306v176q0 63 -45.5 107.5t-108.5 44.5q-61 0 -106.5 -45t-45.5 -107v-176z" />
<glyph unicode="&#xab;" horiz-adv-x="1357" d="M133 442l260 445h312l-261 -445l261 -442h-312zM653 442l260 445h312l-260 -445l260 -442h-312z" />
<glyph unicode="&#xac;" horiz-adv-x="1052" d="M158 399v215h698v-356h-151v141h-547z" />
<glyph unicode="&#xad;" horiz-adv-x="1024" d="M133 606v268h758v-268h-758z" />
<glyph unicode="&#xaf;" horiz-adv-x="1126" d="M184 1208v178h764v-178h-764z" />
<glyph unicode="&#xb0;" horiz-adv-x="839" d="M133 1108v111q0 59 22.5 111t61.5 91t91.5 61.5t111.5 22.5t111.5 -22.5t91.5 -61.5t61.5 -91t22.5 -111v-111q0 -59 -22.5 -111.5t-61.5 -91.5t-91.5 -61.5t-111.5 -22.5t-111.5 22.5t-91.5 61.5t-61.5 91.5t-22.5 111.5zM315 1108q0 -43 31 -73.5t74 -30.5t73.5 30.5 t30.5 73.5v111q0 43 -31.5 72.5t-72.5 29.5t-73 -29.5t-32 -72.5v-111z" />
<glyph unicode="&#xb1;" horiz-adv-x="1024" d="M133 88v268h758v-268h-758zM133 700v269h246v243h268v-243h244v-269h-244v-245h-268v245h-246z" />
<glyph unicode="&#xb2;" horiz-adv-x="614" d="M31 856q0 47 10 103.5t47 91.5l281 280q29 35 28 74q0 39 -25.5 64.5t-62.5 25.5q-41 0 -69.5 -27.5t-28.5 -68.5l2 -17h-178l-2 27q0 55 22.5 103.5t61.5 83t89 55t103 20.5q57 0 107.5 -20.5t87.5 -56t58.5 -85t21.5 -106.5q0 -47 -19.5 -93t-50.5 -81l-252 -262 q-20 -23 -27.5 -51.5t-7.5 -59.5h342v-178h-536z" />
<glyph unicode="&#xb3;" horiz-adv-x="618" d="M31 934h178q0 -41 28.5 -72t71.5 -31q41 0 71 30t30 73q0 41 -4.5 70.5t-18.5 49t-43 29t-76 9.5v151q25 0 50.5 5t45 16.5t33 31t13.5 47.5q0 25 -2 52.5t-12.5 49t-31 36t-55.5 14.5q-43 0 -71.5 -30.5t-28.5 -71.5h-178q0 57 22.5 107t60.5 88t88 60.5t107 22.5 t107.5 -22.5t88.5 -60.5t60.5 -88t22.5 -107q0 -68 -10.5 -123.5t-63.5 -102.5q74 -74 74 -176q0 -66 -15.5 -127t-48 -107t-86 -74t-129.5 -28q-57 0 -107 22.5t-88 60.5t-60.5 88.5t-22.5 107.5z" />
<glyph unicode="&#xb4;" horiz-adv-x="442" d="M20 1155l119 375h291l-237 -375h-173z" />
<glyph unicode="&#xb5;" horiz-adv-x="1083" d="M102 -430l2 1454h279v-694q0 -63 28.5 -94t94.5 -31q45 0 80 18.5t59.5 49t36.5 69.5t12 82v600h279v-1024h-279v174q-59 -104 -129.5 -154.5t-193.5 -50.5v-399h-269z" />
<glyph unicode="&#xb6;" horiz-adv-x="1153" d="M59 1102q0 100 20.5 193.5t68 164t125 113.5t192.5 43h643v-197h-121v-1839h-176v1839h-217v-1839h-176v1020q-102 8 -171 54t-111 116t-59.5 156t-17.5 176z" />
<glyph unicode="&#xb7;" horiz-adv-x="569" d="M133 766q0 63 42 108.5t108 45.5q63 0 108 -45.5t45 -108.5q0 -66 -45 -108t-108 -42t-106.5 43.5t-43.5 106.5z" />
<glyph unicode="&#xb8;" horiz-adv-x="794" d="M229 -438l52 90q12 -12 30.5 -14.5t34.5 -2.5q37 0 63.5 26t26.5 63t-19.5 64.5t-60.5 27.5q-55 0 -92 -15l86 201h119l-49 -94q72 0 118 -48t46 -120q0 -111 -62.5 -161t-167.5 -50q-33 0 -64.5 7t-60.5 26z" />
<glyph unicode="&#xb9;" horiz-adv-x="415" d="M31 1178v272l176 205h178v-977h-178v702z" />
<glyph unicode="&#xba;" horiz-adv-x="1107" d="M133 0v268h842v-268h-842zM133 797v286q0 86 33 163t90 134.5t134 91t163 33.5t163 -33.5t134 -91t91 -134.5t34 -163v-286q0 -86 -34 -163t-91 -134.5t-134 -91t-163 -33.5t-163 33.5t-134 91t-90 134.5t-33 163zM401 797q0 -61 44 -107.5t108 -46.5q63 0 108.5 45 t45.5 109v286q0 63 -45.5 107.5t-108.5 44.5q-61 0 -106.5 -45t-45.5 -107v-286z" />
<glyph unicode="&#xbb;" horiz-adv-x="1357" d="M133 0l260 442l-260 445h311l261 -445l-261 -442h-311zM653 0l260 442l-260 445h312l260 -445l-260 -442h-312z" />
<glyph unicode="&#xbc;" horiz-adv-x="1517" d="M96 999v273l176 205h179v-977h-179v702zM229 0l875 1477h203l-877 -1477h-201zM868 166v178l234 633h184l-229 -633h119v182h178v-182h76v-178h-76v-166h-178v166h-308z" />
<glyph unicode="&#xbd;" horiz-adv-x="1624" d="M96 999v273l176 205h179v-977h-179v702zM229 0l875 1477h213l-877 -1477h-211zM995 178q0 78 28 137.5t67.5 106.5t88 85t88.5 73.5t67.5 70.5t27.5 76q0 37 -25.5 63.5t-62.5 26.5q-41 0 -69.5 -27.5t-28.5 -68.5l2 -16h-179l-2 28q0 55 22.5 102.5t61.5 83t89.5 55 t103.5 19.5q57 0 107.5 -20.5t87 -56t58 -85t21.5 -106.5q0 -61 -26.5 -110.5t-65.5 -92.5t-86 -82t-86 -78.5t-65.5 -85t-26.5 -98.5h342v-178h-537z" />
<glyph unicode="&#xbe;" horiz-adv-x="1675" d="M117 748h178q0 -41 29.5 -72t70.5 -31t71 31t30 72t-4.5 70.5t-18.5 49t-43 28.5t-76 9v152q25 0 50.5 5t45 16.5t33 30.5t13.5 48q0 27 -3.5 53.5t-13.5 48t-30.5 36t-53.5 14.5q-41 0 -70.5 -31t-29.5 -72h-178q0 57 21.5 108.5t59.5 89.5t88 59.5t109 21.5 q57 0 108.5 -21.5t89.5 -59.5t59.5 -89t21.5 -109q0 -68 -11.5 -121t-62.5 -104q74 -74 74 -176q0 -68 -15.5 -128.5t-48 -106.5t-86 -73.5t-129.5 -27.5q-59 0 -109 21.5t-88 59.5t-59.5 88t-21.5 110zM369 -4l874 1481h225l-876 -1477zM1030 166v178l234 633h184 l-229 -633h118v182h179v-182h75v-178h-75v-166h-179v166h-307z" />
<glyph unicode="&#xbf;" horiz-adv-x="1101" d="M133 408q0 76 20.5 133t51.5 105t66.5 90t66.5 86t51.5 93.5t20.5 112.5l-2 47h264q8 -35 8 -90q0 -109 -42 -186.5t-91 -141t-91 -122t-42 -125.5q0 -59 35.5 -100.5t99.5 -41.5q61 0 104 42t43 104l-2 24h271l2 -41q0 -84 -35 -156.5t-93.5 -126t-133 -84t-156.5 -30.5 q-86 0 -162 30.5t-132 85t-89 129t-33 163.5zM383 1356q0 66 45 107.5t109 41.5q63 0 106 -43t43 -106t-42 -108.5t-107 -45.5q-63 0 -108.5 45t-45.5 109z" />
<glyph unicode="&#xc0;" d="M133 -6v797q0 86 34 162.5t91 134t134 91t163 33.5t163 -33.5t134 -91t91 -134t34 -162.5v-797h-270v182h-306v-182h-268zM236 1612h290l119 -375h-172zM401 446h306v345q0 61 -45.5 106t-106.5 45t-107.5 -44t-46.5 -107v-345z" />
<glyph unicode="&#xc1;" d="M133 -6v797q0 86 34 162.5t91 134t134 91t163 33.5t163 -33.5t134 -91t91 -134t34 -162.5v-797h-268v182h-306v-182h-270zM403 446h306v345q0 63 -46.5 107t-107.5 44t-106.5 -45t-45.5 -106v-345zM465 1237l119 375h290l-237 -375h-172z" />
<glyph unicode="&#xc2;" d="M133 -6v797q0 86 34 162.5t91 134t134 91t163 33.5t163 -33.5t134 -91t91 -134t34 -162.5v-797h-270v182h-306v-182h-268zM174 1229l227 272h295l240 -272h-172l-213 119l-205 -119h-172zM401 446h306v345q0 61 -45.5 106t-106.5 45t-107.5 -44t-46.5 -107v-345z" />
<glyph unicode="&#xc3;" d="M133 -6v797q0 86 34 162.5t91 134t134 91t163 33.5t163 -33.5t134 -91t91 -134t34 -162.5v-797h-270v182h-306v-182h-268zM180 1286q0 57 11.5 112.5t38 99.5t71.5 70.5t113 26.5q39 0 75.5 -19.5t68.5 -43t57.5 -43t43.5 -19.5q20 0 34 14.5t22 35t11 42t3 37.5h201 q0 -59 -11.5 -116.5t-39 -101.5t-72.5 -71.5t-115 -27.5q-41 0 -75.5 18.5t-64.5 42t-55.5 42t-45.5 18.5q-43 0 -68 -39t-25 -78h-178zM401 446h306v345q0 61 -45.5 106t-106.5 45t-107.5 -44t-46.5 -107v-345z" />
<glyph unicode="&#xc4;" d="M133 -6v797q0 86 34 162.5t91 134t134 91t163 33.5t163 -33.5t134 -91t91 -134t34 -162.5v-797h-270v182h-306v-182h-268zM133 1343q0 55 40 95.5t95 40.5t95 -40t40 -96q0 -55 -39.5 -95t-95.5 -40q-55 0 -95 40t-40 95zM401 446h306v345q0 61 -45.5 106t-106.5 45 t-107.5 -44t-46.5 -107v-345zM707 1343q0 55 39.5 95.5t95.5 40.5q55 0 95 -40t40 -96q0 -55 -40 -95t-95 -40t-95 40t-40 95z" />
<glyph unicode="&#xc5;" d="M133 -6v797q0 123 64.5 225t175.5 155q-39 37 -63.5 86.5t-24.5 104.5t22.5 101t59 81t86 54.5t102.5 19.5t102.5 -19.5t86 -53.5t58 -81t21.5 -102t-23.5 -104.5t-64.5 -88.5q111 -53 176.5 -154.5t65.5 -223.5v-797h-270v182h-306v-182h-268zM401 446h306v345 q0 61 -45.5 106t-106.5 45t-107.5 -45t-46.5 -106v-345zM420 1362q0 -59 34.5 -105.5t98.5 -46.5q63 0 96 47.5t33 104.5q0 27 -9 54.5t-26.5 50t-41 36t-54.5 13.5t-54.5 -13.5t-41 -36t-26.5 -50t-9 -54.5z" />
<glyph unicode="&#xc6;" horiz-adv-x="1490" d="M133 0v1077q0 86 34 163t91 134.5t134 91t163 33.5q33 0 66.5 -10t62.5 -10h684v-269h-391v-477h283v-268h-283v-195h391v-270h-661v463h-306v-463h-268zM401 733h306v344q0 61 -45.5 106.5t-106.5 45.5t-107.5 -44t-46.5 -108v-344z" />
<glyph unicode="&#xc7;" d="M133 395v688q0 86 34 163t91 134.5t134 91t163 33.5t163 -33.5t134 -91t91 -134.5t34 -163h-270q0 61 -45.5 106.5t-106.5 45.5t-107.5 -44t-46.5 -108v-688q0 -63 45.5 -108t108.5 -45t107.5 46t44.5 107h270q0 -86 -34 -162.5t-91 -134t-134 -91.5t-163 -34t-163 34 t-134 91.5t-91 134t-34 162.5zM376 -438l52 90q12 -12 30.5 -14.5t34.5 -2.5q37 0 63.5 26t26.5 63t-19.5 64.5t-60.5 27.5q-55 0 -92 -15l86 201h119l-49 -94q72 0 118 -48t46 -120q0 -111 -62.5 -161t-167.5 -50q-33 0 -64.5 7t-60.5 26z" />
<glyph unicode="&#xc8;" horiz-adv-x="925" d="M133 0v1124h660v-268h-392v-168h283v-268h-283v-150h392v-270h-660zM207 1604h291l118 -375h-172z" />
<glyph unicode="&#xc9;" horiz-adv-x="925" d="M133 0v1124h660v-268h-392v-168h283v-268h-283v-150h392v-270h-660zM373 1229l119 375h290l-237 -375h-172z" />
<glyph unicode="&#xca;" horiz-adv-x="925" d="M82 1235l227 272h295l240 -272h-172l-213 119l-205 -119h-172zM133 0v1124h660v-268h-392v-168h283v-268h-283v-150h392v-270h-660z" />
<glyph unicode="&#xcb;" horiz-adv-x="925" d="M133 0v1124h660v-268h-392v-168h283v-268h-283v-150h392v-270h-660zM137 1343q0 55 40 95.5t95 40.5t95.5 -40t40.5 -96q0 -55 -40 -95t-96 -40q-55 0 -95 40t-40 95zM522 1343q0 55 40 95.5t95 40.5t95.5 -40t40.5 -96q0 -55 -40 -95t-96 -40q-55 0 -95 40t-40 95z" />
<glyph unicode="&#xcc;" horiz-adv-x="536" d="M-33 1608h291l119 -375h-172zM133 0v1124h270v-1124h-270z" />
<glyph unicode="&#xcd;" horiz-adv-x="536" d="M133 0v1124h270v-1124h-270zM186 1229l119 375h291l-238 -375h-172z" />
<glyph unicode="&#xce;" horiz-adv-x="536" d="M-113 1233l228 272h295l239 -272h-172l-213 119l-205 -119h-172zM133 0v1124h270v-1124h-270z" />
<glyph unicode="&#xcf;" horiz-adv-x="536" d="M-20 1343q0 55 39.5 95.5t95.5 40.5q55 0 95 -40t40 -96q0 -55 -40 -95t-95 -40t-95 40t-40 95zM133 0v1124h270v-1124h-270zM287 1343q0 55 40 95.5t95 40.5t95 -40t40 -96q0 -55 -40 -95t-95 -40t-95 40t-40 95z" />
<glyph unicode="&#xd0;" horiz-adv-x="1105" d="M53 616v226h80v637h420q217 0 318.5 -114t101.5 -325v-602q0 -211 -101.5 -324.5t-318.5 -113.5h-420v616h-80zM401 246h152q160 0 160 250l6 557q0 106 -43 143t-123 37h-152v-391h172v-226h-172v-370z" />
<glyph unicode="&#xd1;" d="M133 0v1124h270l306 -530v530h268v-1124h-268l-306 657v-657h-270zM180 1300q0 57 11.5 112.5t38 99.5t71.5 71t113 27q39 0 75.5 -19.5t68.5 -43t57.5 -43t43.5 -19.5q20 0 34 14t22 34.5t11 42t3 38.5h201q0 -59 -11.5 -116.5t-39 -101.5t-72.5 -72t-115 -28 q-41 0 -75.5 18.5t-64.5 42t-55.5 42t-45.5 18.5q-43 0 -68 -39t-25 -78h-178z" />
<glyph unicode="&#xd2;" horiz-adv-x="1107" d="M133 395v346q0 86 33 163t90 134.5t134 91t163 33.5t163 -33.5t134 -91t91 -134.5t34 -163v-346q0 -86 -34 -162.5t-91 -134t-134 -91.5t-163 -34t-163 34t-134 91.5t-90 134t-33 162.5zM244 1599h291l118 -374h-172zM401 395q0 -61 44 -107t108 -46q63 0 108.5 45 t45.5 108v346q0 63 -45.5 107.5t-108.5 44.5q-61 0 -106.5 -45t-45.5 -107v-346z" />
<glyph unicode="&#xd3;" horiz-adv-x="1107" d="M133 395v346q0 86 34 163t91 134.5t134 91t163 33.5t163 -33.5t134 -91t90 -134.5t33 -163v-346q0 -86 -33 -162.5t-90 -134t-134 -91.5t-163 -34t-163 34t-134 91.5t-91 134t-34 162.5zM401 395q0 -63 45.5 -108t108.5 -45t107.5 46t44.5 107v346q0 61 -45.5 106.5 t-106.5 45.5q-63 0 -108.5 -44t-45.5 -108v-346zM455 1225l118 374h291l-237 -374h-172z" />
<glyph unicode="&#xd4;" horiz-adv-x="1107" d="M133 395v346q0 86 33 163t90 134.5t134 91t163 33.5t163 -33.5t134 -91t91 -134.5t34 -163v-346q0 -86 -34 -162.5t-91 -134t-134 -91.5t-163 -34t-163 34t-134 91.5t-90 134t-33 162.5zM174 1235l227 272h295l240 -272h-172l-213 119l-205 -119h-172zM401 395 q0 -61 44 -107t108 -46q63 0 108.5 45t45.5 108v346q0 63 -45.5 107.5t-108.5 44.5q-61 0 -106.5 -45t-45.5 -107v-346z" />
<glyph unicode="&#xd5;" horiz-adv-x="1107" d="M133 395v346q0 86 33 163t90 134.5t134 91t163 33.5t163 -33.5t134 -91t91 -134.5t34 -163v-346q0 -86 -34 -162.5t-91 -134t-134 -91.5t-163 -34t-163 34t-134 91.5t-90 134t-33 162.5zM178 1284q0 57 11.5 112.5t38 99.5t71.5 70.5t113 26.5q39 0 75.5 -19.5t68.5 -43 t57.5 -43t43.5 -19.5q20 0 34 14.5t22 35t11 42t3 37.5h201q0 -59 -11.5 -116.5t-39 -101.5t-72.5 -71.5t-115 -27.5q-41 0 -75.5 18.5t-64.5 42t-55.5 42t-45.5 18.5q-43 0 -68 -39t-25 -78h-178zM401 395q0 -61 44 -107t108 -46q63 0 108.5 45t45.5 108v346 q0 63 -45.5 107.5t-108.5 44.5q-61 0 -106.5 -45t-45.5 -107v-346z" />
<glyph unicode="&#xd6;" d="M133 395v396q0 86 33 162.5t90 134t134 91t163 33.5t163 -33.5t134 -91t91 -134t34 -162.5v-396q0 -86 -34 -162.5t-91 -134t-134 -91.5t-163 -34t-163 34t-134 91.5t-90 134t-33 162.5zM133 1343q0 55 40 95.5t95 40.5t95 -40t40 -96q0 -55 -39.5 -95t-95.5 -40 q-55 0 -95 40t-40 95zM401 395q0 -61 44 -107t108 -46q63 0 108.5 45t45.5 108v396q0 63 -45.5 107t-108.5 44q-61 0 -106.5 -45t-45.5 -106v-396zM707 1343q0 55 39.5 95.5t95.5 40.5q55 0 95 -40t40 -96q0 -55 -40 -95t-95 -40t-95 40t-40 95z" />
<glyph unicode="&#xd7;" horiz-adv-x="1024" d="M150 565l174 174l-174 174l190 189l174 -172l172 172l188 -191l-172 -172l172 -172l-188 -190l-172 172l-174 -172z" />
<glyph unicode="&#xd8;" horiz-adv-x="1107" d="M55 0l109 236q-31 76 -31 159v688q0 86 33 163t90 134.5t134 91t163 33.5q88 0 174 -39l18 39h271l-98 -211q57 -96 57 -211v-688q0 -86 -34 -162.5t-91 -134t-134 -91.5t-163 -34q-121 0 -215 58l-14 -31h-269zM401 754l213 467q-31 14 -61 14q-61 0 -106.5 -45 t-45.5 -107v-329zM453 281q41 -39 100 -39q63 0 108.5 45t45.5 108v436z" />
<glyph unicode="&#xd9;" d="M133 389v735h268v-735q0 -63 45.5 -108t108.5 -45t107.5 46t44.5 107v735h270v-735q0 -86 -34 -162.5t-91 -134t-134 -91.5t-163 -34t-163 34t-134 91.5t-91 134t-34 162.5zM250 1602h291l118 -375h-172z" />
<glyph unicode="&#xda;" d="M133 389v735h270v-735q0 -61 44.5 -107t107.5 -46t108.5 45t45.5 108v735h268v-735q0 -86 -34 -162.5t-91 -134t-134 -91.5t-163 -34t-163 34t-134 91.5t-91 134t-34 162.5zM451 1227l118 375h291l-237 -375h-172z" />
<glyph unicode="&#xdb;" d="M133 389v735h268v-735q0 -63 45.5 -108t108.5 -45t107.5 46t44.5 107v735h270v-735q0 -86 -34 -162.5t-91 -134t-134 -91.5t-163 -34t-163 34t-134 91.5t-91 134t-34 162.5zM174 1235l227 272h295l240 -272h-172l-213 119l-205 -119h-172z" />
<glyph unicode="&#xdc;" d="M133 389v735h268v-735q0 -63 45.5 -108t108.5 -45t107.5 46t44.5 107v735h270v-735q0 -86 -34 -162.5t-91 -134t-134 -91.5t-163 -34t-163 34t-134 91.5t-91 134t-34 162.5zM133 1343q0 55 40 95.5t95 40.5t95 -40t40 -96q0 -55 -39.5 -95t-95.5 -40q-55 0 -95 40t-40 95 zM707 1343q0 55 39.5 95.5t95.5 40.5q55 0 95 -40t40 -96q0 -55 -40 -95t-95 -40t-95 40t-40 95z" />
<glyph unicode="&#xdd;" horiz-adv-x="1069" d="M88 1124h313l140 -391l141 391h313l-319 -800v-330h-268v330zM434 1227l119 375h291l-238 -375h-172z" />
<glyph unicode="&#xde;" horiz-adv-x="1105" d="M131 0v1479h270v-318q125 0 230.5 -11t181.5 -55t118 -131t42 -241q0 -152 -43 -239t-119 -131t-180.5 -55t-229.5 -11v-287h-270zM401 539h152q82 0 119 57t37 131t-37 131t-119 57h-152v-376z" />
<glyph unicode="&#xdf;" horiz-adv-x="1263" d="M133 0v1083q0 111 38 191t102.5 131t151.5 75.5t185 24.5h484v-268l-156 -340q59 -6 101 -36t69 -75t39 -98t12 -106v-187q0 -90 -27.5 -164.5t-79 -129t-124 -84t-164.5 -29.5q-63 0 -121 12v268q20 -6 39.5 -10t42.5 -4q61 0 113.5 37t52.5 104v187q0 33 -18.5 62.5 t-48 50t-64.5 31.5t-66 7v219q39 68 66.5 140.5t60.5 144.5h-272q-61 0 -104.5 -46t-43.5 -108v-1083h-268z" />
<glyph unicode="&#xe0;" d="M133 -6v797q0 86 34 162.5t91 134t134 91t163 33.5t163 -33.5t134 -91t91 -134t34 -162.5v-797h-270v182h-306v-182h-268zM236 1612h290l119 -375h-172zM401 446h306v345q0 61 -45.5 106t-106.5 45t-107.5 -44t-46.5 -107v-345z" />
<glyph unicode="&#xe1;" d="M133 -6v797q0 86 34 162.5t91 134t134 91t163 33.5t163 -33.5t134 -91t91 -134t34 -162.5v-797h-268v182h-306v-182h-270zM403 446h306v345q0 63 -46.5 107t-107.5 44t-106.5 -45t-45.5 -106v-345zM465 1237l119 375h290l-237 -375h-172z" />
<glyph unicode="&#xe2;" d="M133 -6v797q0 86 34 162.5t91 134t134 91t163 33.5t163 -33.5t134 -91t91 -134t34 -162.5v-797h-270v182h-306v-182h-268zM174 1229l227 272h295l240 -272h-172l-213 119l-205 -119h-172zM401 446h306v345q0 61 -45.5 106t-106.5 45t-107.5 -44t-46.5 -107v-345z" />
<glyph unicode="&#xe3;" d="M133 -6v797q0 86 34 162.5t91 134t134 91t163 33.5t163 -33.5t134 -91t91 -134t34 -162.5v-797h-270v182h-306v-182h-268zM180 1286q0 57 11.5 112.5t38 99.5t71.5 70.5t113 26.5q39 0 75.5 -19.5t68.5 -43t57.5 -43t43.5 -19.5q20 0 34 14.5t22 35t11 42t3 37.5h201 q0 -59 -11.5 -116.5t-39 -101.5t-72.5 -71.5t-115 -27.5q-41 0 -75.5 18.5t-64.5 42t-55.5 42t-45.5 18.5q-43 0 -68 -39t-25 -78h-178zM401 446h306v345q0 61 -45.5 106t-106.5 45t-107.5 -44t-46.5 -107v-345z" />
<glyph unicode="&#xe4;" d="M133 -6v797q0 86 34 162.5t91 134t134 91t163 33.5t163 -33.5t134 -91t91 -134t34 -162.5v-797h-270v182h-306v-182h-268zM133 1343q0 55 40 95.5t95 40.5t95 -40t40 -96q0 -55 -39.5 -95t-95.5 -40q-55 0 -95 40t-40 95zM401 446h306v345q0 61 -45.5 106t-106.5 45 t-107.5 -44t-46.5 -107v-345zM707 1343q0 55 39.5 95.5t95.5 40.5q55 0 95 -40t40 -96q0 -55 -40 -95t-95 -40t-95 40t-40 95z" />
<glyph unicode="&#xe5;" d="M133 -6v797q0 123 64.5 225t175.5 155q-39 37 -63.5 86.5t-24.5 104.5t22.5 101t59 81t86 54.5t102.5 19.5t102.5 -19.5t86 -53.5t58 -81t21.5 -102t-23.5 -104.5t-64.5 -88.5q111 -53 176.5 -154.5t65.5 -223.5v-797h-270v182h-306v-182h-268zM401 446h306v345 q0 61 -45.5 106t-106.5 45t-107.5 -45t-46.5 -106v-345zM420 1362q0 -59 34.5 -105.5t98.5 -46.5q63 0 96 47.5t33 104.5q0 27 -9 54.5t-26.5 50t-41 36t-54.5 13.5t-54.5 -13.5t-41 -36t-26.5 -50t-9 -54.5z" />
<glyph unicode="&#xe6;" horiz-adv-x="1490" d="M133 0v1077q0 86 34 163t91 134.5t134 91t163 33.5q33 0 66.5 -10t62.5 -10h684v-269h-391v-477h283v-268h-283v-195h391v-270h-661v463h-306v-463h-268zM401 733h306v344q0 61 -45.5 106.5t-106.5 45.5t-107.5 -44t-46.5 -108v-344z" />
<glyph unicode="&#xe7;" d="M133 395v688q0 86 34 163t91 134.5t134 91t163 33.5t163 -33.5t134 -91t91 -134.5t34 -163h-270q0 61 -45.5 106.5t-106.5 45.5t-107.5 -44t-46.5 -108v-688q0 -63 45.5 -108t108.5 -45t107.5 46t44.5 107h270q0 -86 -34 -162.5t-91 -134t-134 -91.5t-163 -34t-163 34 t-134 91.5t-91 134t-34 162.5zM376 -438l52 90q12 -12 30.5 -14.5t34.5 -2.5q37 0 63.5 26t26.5 63t-19.5 64.5t-60.5 27.5q-55 0 -92 -15l86 201h119l-49 -94q72 0 118 -48t46 -120q0 -111 -62.5 -161t-167.5 -50q-33 0 -64.5 7t-60.5 26z" />
<glyph unicode="&#xe8;" horiz-adv-x="925" d="M133 0v1124h660v-268h-392v-168h283v-268h-283v-150h392v-270h-660zM207 1604h291l118 -375h-172z" />
<glyph unicode="&#xe9;" horiz-adv-x="925" d="M133 0v1124h660v-268h-392v-168h283v-268h-283v-150h392v-270h-660zM373 1229l119 375h290l-237 -375h-172z" />
<glyph unicode="&#xea;" horiz-adv-x="925" d="M82 1235l227 272h295l240 -272h-172l-213 119l-205 -119h-172zM133 0v1124h660v-268h-392v-168h283v-268h-283v-150h392v-270h-660z" />
<glyph unicode="&#xeb;" horiz-adv-x="925" d="M133 0v1124h660v-268h-392v-168h283v-268h-283v-150h392v-270h-660zM137 1343q0 55 40 95.5t95 40.5t95.5 -40t40.5 -96q0 -55 -40 -95t-96 -40q-55 0 -95 40t-40 95zM522 1343q0 55 40 95.5t95 40.5t95.5 -40t40.5 -96q0 -55 -40 -95t-96 -40q-55 0 -95 40t-40 95z" />
<glyph unicode="&#xec;" horiz-adv-x="536" d="M-33 1608h291l119 -375h-172zM133 0v1124h270v-1124h-270z" />
<glyph unicode="&#xed;" horiz-adv-x="536" d="M133 0v1124h270v-1124h-270zM186 1229l119 375h291l-238 -375h-172z" />
<glyph unicode="&#xee;" horiz-adv-x="536" d="M-113 1233l228 272h295l239 -272h-172l-213 119l-205 -119h-172zM133 0v1124h270v-1124h-270z" />
<glyph unicode="&#xef;" horiz-adv-x="536" d="M-20 1343q0 55 39.5 95.5t95.5 40.5q55 0 95 -40t40 -96q0 -55 -40 -95t-95 -40t-95 40t-40 95zM133 0v1124h270v-1124h-270zM287 1343q0 55 40 95.5t95 40.5t95 -40t40 -96q0 -55 -40 -95t-95 -40t-95 40t-40 95z" />
<glyph unicode="&#xf0;" horiz-adv-x="1093" d="M53 616v226h80v637h420q217 0 318.5 -114t101.5 -325v-602q0 -211 -101.5 -324.5t-318.5 -113.5h-420v616h-80zM401 246h152q160 0 160 250l6 557q0 106 -43 143t-123 37h-152v-391h172v-226h-172v-370z" />
<glyph unicode="&#xf1;" d="M133 0v1124h270l306 -530v530h268v-1124h-268l-306 657v-657h-270zM180 1300q0 57 11.5 112.5t38 99.5t71.5 71t113 27q39 0 75.5 -19.5t68.5 -43t57.5 -43t43.5 -19.5q20 0 34 14t22 34.5t11 42t3 38.5h201q0 -59 -11.5 -116.5t-39 -101.5t-72.5 -72t-115 -28 q-41 0 -75.5 18.5t-64.5 42t-55.5 42t-45.5 18.5q-43 0 -68 -39t-25 -78h-178z" />
<glyph unicode="&#xf2;" horiz-adv-x="1107" d="M133 395v346q0 86 33 163t90 134.5t134 91t163 33.5t163 -33.5t134 -91t91 -134.5t34 -163v-346q0 -86 -34 -162.5t-91 -134t-134 -91.5t-163 -34t-163 34t-134 91.5t-90 134t-33 162.5zM244 1599h291l118 -374h-172zM401 395q0 -61 44 -107t108 -46q63 0 108.5 45 t45.5 108v346q0 63 -45.5 107.5t-108.5 44.5q-61 0 -106.5 -45t-45.5 -107v-346z" />
<glyph unicode="&#xf3;" horiz-adv-x="1107" d="M133 395v346q0 86 34 163t91 134.5t134 91t163 33.5t163 -33.5t134 -91t90 -134.5t33 -163v-346q0 -86 -33 -162.5t-90 -134t-134 -91.5t-163 -34t-163 34t-134 91.5t-91 134t-34 162.5zM401 395q0 -63 45.5 -108t108.5 -45t107.5 46t44.5 107v346q0 61 -45.5 106.5 t-106.5 45.5q-63 0 -108.5 -44t-45.5 -108v-346zM455 1225l118 374h291l-237 -374h-172z" />
<glyph unicode="&#xf4;" horiz-adv-x="1107" d="M133 395v346q0 86 33 163t90 134.5t134 91t163 33.5t163 -33.5t134 -91t91 -134.5t34 -163v-346q0 -86 -34 -162.5t-91 -134t-134 -91.5t-163 -34t-163 34t-134 91.5t-90 134t-33 162.5zM174 1235l227 272h295l240 -272h-172l-213 119l-205 -119h-172zM401 395 q0 -61 44 -107t108 -46q63 0 108.5 45t45.5 108v346q0 63 -45.5 107.5t-108.5 44.5q-61 0 -106.5 -45t-45.5 -107v-346z" />
<glyph unicode="&#xf5;" horiz-adv-x="1107" d="M133 395v346q0 86 33 163t90 134.5t134 91t163 33.5t163 -33.5t134 -91t91 -134.5t34 -163v-346q0 -86 -34 -162.5t-91 -134t-134 -91.5t-163 -34t-163 34t-134 91.5t-90 134t-33 162.5zM178 1284q0 57 11.5 112.5t38 99.5t71.5 70.5t113 26.5q39 0 75.5 -19.5t68.5 -43 t57.5 -43t43.5 -19.5q20 0 34 14.5t22 35t11 42t3 37.5h201q0 -59 -11.5 -116.5t-39 -101.5t-72.5 -71.5t-115 -27.5q-41 0 -75.5 18.5t-64.5 42t-55.5 42t-45.5 18.5q-43 0 -68 -39t-25 -78h-178zM401 395q0 -61 44 -107t108 -46q63 0 108.5 45t45.5 108v346 q0 63 -45.5 107.5t-108.5 44.5q-61 0 -106.5 -45t-45.5 -107v-346z" />
<glyph unicode="&#xf6;" d="M133 395v396q0 86 33 162.5t90 134t134 91t163 33.5t163 -33.5t134 -91t91 -134t34 -162.5v-396q0 -86 -34 -162.5t-91 -134t-134 -91.5t-163 -34t-163 34t-134 91.5t-90 134t-33 162.5zM133 1343q0 55 40 95.5t95 40.5t95 -40t40 -96q0 -55 -39.5 -95t-95.5 -40 q-55 0 -95 40t-40 95zM401 395q0 -61 44 -107t108 -46q63 0 108.5 45t45.5 108v396q0 63 -45.5 107t-108.5 44q-61 0 -106.5 -45t-45.5 -106v-396zM707 1343q0 55 39.5 95.5t95.5 40.5q55 0 95 -40t40 -96q0 -55 -40 -95t-95 -40t-95 40t-40 95z" />
<glyph unicode="&#xf7;" horiz-adv-x="569" d="M133 354q0 63 42 108.5t108 45.5q63 0 108 -45t45 -109q0 -66 -45 -107.5t-108 -41.5t-106.5 43t-43.5 106zM133 971q0 63 42 108t108 45q63 0 108 -45t45 -108q0 -66 -45 -108t-108 -42t-106.5 43.5t-43.5 106.5z" />
<glyph unicode="&#xf8;" horiz-adv-x="1107" d="M55 0l109 236q-31 76 -31 159v688q0 86 33 163t90 134.5t134 91t163 33.5q88 0 174 -39l18 39h271l-98 -211q57 -96 57 -211v-688q0 -86 -34 -162.5t-91 -134t-134 -91.5t-163 -34q-121 0 -215 58l-14 -31h-269zM401 754l213 467q-31 14 -61 14q-61 0 -106.5 -45 t-45.5 -107v-329zM453 281q41 -39 100 -39q63 0 108.5 45t45.5 108v436z" />
<glyph unicode="&#xf9;" d="M133 389v735h270v-735q0 -61 44.5 -107t107.5 -46t108.5 45t45.5 108v735h268v-735q0 -86 -34 -162.5t-91 -134t-134 -91.5t-163 -34t-163 34t-134 91.5t-91 134t-34 162.5zM238 1194l118 375h291l-237 -375h-172zM621 1194l118 375h291l-237 -375h-172z" />
<glyph unicode="&#xfa;" d="M133 389v735h270v-735q0 -61 44.5 -107t107.5 -46t108.5 45t45.5 108v735h268v-735q0 -86 -34 -162.5t-91 -134t-134 -91.5t-163 -34t-163 34t-134 91.5t-91 134t-34 162.5zM451 1227l118 375h291l-237 -375h-172z" />
<glyph unicode="&#xfb;" d="M133 389v735h268v-735q0 -63 45.5 -108t108.5 -45t107.5 46t44.5 107v735h270v-735q0 -86 -34 -162.5t-91 -134t-134 -91.5t-163 -34t-163 34t-134 91.5t-91 134t-34 162.5zM174 1235l227 272h295l240 -272h-172l-213 119l-205 -119h-172z" />
<glyph unicode="&#xfc;" d="M133 389v735h268v-735q0 -63 45.5 -108t108.5 -45t107.5 46t44.5 107v735h270v-735q0 -86 -34 -162.5t-91 -134t-134 -91.5t-163 -34t-163 34t-134 91.5t-91 134t-34 162.5zM133 1343q0 55 40 95.5t95 40.5t95 -40t40 -96q0 -55 -39.5 -95t-95.5 -40q-55 0 -95 40t-40 95 zM707 1343q0 55 39.5 95.5t95.5 40.5q55 0 95 -40t40 -96q0 -55 -40 -95t-95 -40t-95 40t-40 95z" />
<glyph unicode="&#xfd;" horiz-adv-x="1069" d="M88 1124h313l140 -391l141 391h313l-319 -800v-330h-268v330zM434 1227l119 375h291l-238 -375h-172z" />
<glyph unicode="&#xfe;" horiz-adv-x="1105" d="M131 0v1479h270v-318q125 0 230.5 -11t181.5 -55t118 -131t42 -241q0 -152 -43 -239t-119 -131t-180.5 -55t-229.5 -11v-287h-270zM401 539h152q82 0 119 57t37 131t-37 131t-119 57h-152v-376z" />
<glyph unicode="&#xff;" horiz-adv-x="1069" d="M88 1124h313l140 -391l141 391h313l-319 -800v-330h-268v330zM113 1343q0 55 40 95.5t95 40.5t95 -40t40 -96q0 -55 -40 -95t-95 -40t-95 40t-40 95zM686 1343q0 55 40 95.5t95 40.5t95 -40t40 -96q0 -55 -39.5 -95t-95.5 -40q-55 0 -95 40t-40 95z" />
<glyph unicode="&#x152;" horiz-adv-x="1499" d="M133 395v688q0 86 33 163t90 134.5t134 91t163 33.5q82 0 156 -30v4h659v-269h-391v-336h391v-268h-391v-336h391v-270h-659v2q-80 -29 -156 -29q-86 0 -163 34t-134 91.5t-90 134t-33 162.5zM401 395q0 -61 44 -107t108 -46q63 0 108.5 45t45.5 108v688 q0 63 -45.5 107.5t-108.5 44.5q-61 0 -106.5 -45t-45.5 -107v-688z" />
<glyph unicode="&#x153;" horiz-adv-x="1499" d="M133 395v688q0 86 33 163t90 134.5t134 91t163 33.5q82 0 156 -30v4h659v-269h-391v-336h391v-268h-391v-336h391v-270h-659v2q-80 -29 -156 -29q-86 0 -163 34t-134 91.5t-90 134t-33 162.5zM401 395q0 -61 44 -107t108 -46q63 0 108.5 45t45.5 108v688 q0 63 -45.5 107.5t-108.5 44.5q-61 0 -106.5 -45t-45.5 -107v-688z" />
<glyph unicode="&#x178;" horiz-adv-x="1069" d="M88 1124h313l140 -391l141 391h313l-319 -800v-330h-268v330zM113 1343q0 55 40 95.5t95 40.5t95 -40t40 -96q0 -55 -40 -95t-95 -40t-95 40t-40 95zM686 1343q0 55 40 95.5t95 40.5t95 -40t40 -96q0 -55 -39.5 -95t-95.5 -40q-55 0 -95 40t-40 95z" />
<glyph unicode="&#x2c6;" horiz-adv-x="1126" d="M193 1161l227 273h295l239 -273h-172l-213 119l-204 -119h-172z" />
<glyph unicode="&#x2dc;" horiz-adv-x="907" d="M66 1159q0 57 11 112.5t37.5 99.5t71.5 70.5t113 26.5q39 0 76 -19t68.5 -43t57 -43.5t44.5 -19.5q20 0 33.5 14.5t21.5 35t11 42t3 38.5h201q0 -59 -11 -117t-39 -102t-72.5 -71.5t-114.5 -27.5q-41 0 -76 18.5t-64.5 42t-55.5 42t-46 18.5q-43 0 -67.5 -39t-24.5 -78 h-178z" />
<glyph unicode="&#x2000;" horiz-adv-x="835" />
<glyph unicode="&#x2001;" horiz-adv-x="1671" />
<glyph unicode="&#x2002;" horiz-adv-x="835" />
<glyph unicode="&#x2003;" horiz-adv-x="1671" />
<glyph unicode="&#x2004;" horiz-adv-x="557" />
<glyph unicode="&#x2005;" horiz-adv-x="417" />
<glyph unicode="&#x2006;" horiz-adv-x="278" />
<glyph unicode="&#x2007;" horiz-adv-x="278" />
<glyph unicode="&#x2008;" horiz-adv-x="208" />
<glyph unicode="&#x2009;" horiz-adv-x="334" />
<glyph unicode="&#x200a;" horiz-adv-x="92" />
<glyph unicode="&#x2010;" horiz-adv-x="890" d="M133 606v268h625v-268h-625z" />
<glyph unicode="&#x2011;" horiz-adv-x="890" d="M133 606v268h625v-268h-625z" />
<glyph unicode="&#x2012;" horiz-adv-x="890" d="M133 606v268h625v-268h-625z" />
<glyph unicode="&#x2013;" horiz-adv-x="1024" d="M133 606v268h758v-268h-758z" />
<glyph unicode="&#x2014;" horiz-adv-x="1558" d="M133 606v268h1264v-268h-1264z" />
<glyph unicode="&#x2018;" horiz-adv-x="569" d="M133 1139q0 57 6 105t21.5 91t40 85t61.5 89h121l-68 -223q53 -10 87 -52t34 -95q0 -63 -42 -108.5t-107 -45.5q-63 0 -108.5 45t-45.5 109z" />
<glyph unicode="&#x2019;" horiz-adv-x="569" d="M133 1356q0 63 42 108t108 45q63 0 108 -45t45 -108q0 -115 -27.5 -198t-101.5 -173h-121l68 223q-53 10 -87 52.5t-34 95.5z" />
<glyph unicode="&#x201a;" horiz-adv-x="569" d="M133 150q0 63 42 108t108 45q63 0 108 -45t45 -108q0 -115 -27.5 -198t-101.5 -173h-121l68 223q-53 10 -87 52t-34 96z" />
<glyph unicode="&#x201c;" horiz-adv-x="1005" d="M133 1143q0 57 6 105t21.5 91t40 85t61.5 89h121l-68 -223q53 -10 87 -52t34 -95q0 -63 -42 -108.5t-107 -45.5q-63 0 -108.5 45t-45.5 109zM569 1135q0 57 6.5 105t21.5 91t40 85t61 89h121l-67 -223q53 -10 86.5 -52t33.5 -95q0 -63 -42 -108.5t-107 -45.5 q-63 0 -108.5 45t-45.5 109z" />
<glyph unicode="&#x201d;" horiz-adv-x="1005" d="M133 1360q0 63 42 108t108 45q63 0 108 -45t45 -108q0 -115 -27.5 -198t-101.5 -173h-121l68 223q-53 10 -87 52.5t-34 95.5zM569 1352q0 63 42 108t108 45q63 0 108 -45t45 -108q0 -115 -27.5 -198t-101.5 -173h-120l67 223q-53 10 -87 52t-34 96z" />
<glyph unicode="&#x201e;" horiz-adv-x="1005" d="M133 150q0 63 42 108t108 45q63 0 108 -45t45 -108q0 -115 -27.5 -198t-101.5 -173h-121l68 223q-53 10 -87 52t-34 96zM569 141q0 63 42 108.5t108 45.5q63 0 108 -45t45 -109q0 -115 -27.5 -197.5t-101.5 -172.5h-120l67 223q-53 10 -87 52t-34 95z" />
<glyph unicode="&#x2022;" horiz-adv-x="520" d="M74 655q0 80 55 136.5t135 56.5q39 0 74 -15.5t61.5 -42t42 -61.5t15.5 -74q0 -80 -56.5 -135t-136.5 -55t-135 55t-55 135z" />
<glyph unicode="&#x2026;" horiz-adv-x="1708" d="M133 150q0 63 42 108t108 45q63 0 108 -45t45 -108q0 -66 -45 -108t-108 -42t-106.5 43.5t-43.5 106.5zM702 150q0 63 42 108t108 45q63 0 108.5 -45t45.5 -108q0 -66 -45.5 -108t-108.5 -42t-106.5 43.5t-43.5 106.5zM1272 150q0 63 42 108t107 45q63 0 108.5 -45 t45.5 -108q0 -66 -45 -108t-109 -42q-63 0 -106 43.5t-43 106.5z" />
<glyph unicode="&#x202f;" horiz-adv-x="334" />
<glyph unicode="&#x2039;" horiz-adv-x="837" d="M133 442l260 445h312l-261 -445l261 -442h-312z" />
<glyph unicode="&#x203a;" horiz-adv-x="837" d="M133 0l260 442l-260 445h311l261 -445l-261 -442h-311z" />
<glyph unicode="&#x205f;" horiz-adv-x="417" />
<glyph unicode="&#x20ac;" horiz-adv-x="1314" d="M104 512v172h105v113h-105v172h125q23 113 71 211t122 169.5t172 112.5t221 41t221.5 -38t175.5 -136l-90 -182q-49 66 -120.5 96.5t-151.5 30.5q-72 0 -123 -24.5t-88 -65.5t-59.5 -96.5t-34.5 -118.5h487l-88 -172h-418v-113h363l-88 -172h-258q12 -68 33.5 -125 t58.5 -99t90 -66.5t129 -24.5q55 0 105.5 16t95.5 43t86 62.5t78 72.5l4 -252q-72 -92 -182.5 -131t-225.5 -39q-123 0 -223 41t-174 114t-122 172t-69 216h-123z" />
<glyph unicode="&#x2122;" horiz-adv-x="1476" d="M133 1327v152h399v-152h-122v-684h-152v684h-125zM618 643v836h154l195 -490l194 490h154v-836h-154v428l-117 -309h-155l-117 309v-428h-154z" />
<glyph unicode="&#x25fc;" horiz-adv-x="1474" d="M0 0v1475h1475v-1475h-1475z" />
</font>
</defs>
</svg>
